# Rhino

mtllib Circle32.mtl
o object_1
usemtl Default
v 6.473177549537468e-11 0 -0.5
v 0.009607359766960144 0 -0.5975451469421387
v 0.5 0 -0.5
v 0.5 0 -0.5
v 0.009607359766960144 0 -0.5975451469421387
v 0.02383379265666008 0 -0.6444434523582459
v 0.03806022554636002 0 -0.6913416981697083
v 0.5 0 -0.5
v 0.5 0 -0.5
v 0.5 0 -0.5
v 0.03806022554636002 0 -0.6913416981697083
v 0.06116271018981934 0 -0.734563410282135
v 0.08426519483327866 0 -0.7777851223945618
v 0.5 0 -0.5
v 0.5 0 -0.5
v 0.5 0 -0.5
v 0.08426519483327866 0 -0.7777851223945618
v 0.1464466154575348 0 -0.8535534143447876
v 0.5 0 -0.5
v 0.5 0 -0.5
v 0.1464466154575348 0 -0.8535534143447876
v 0.2222149074077606 0 -0.9157348275184631
v 0.5 0 -0.5
v 0.5 0 -0.5
v 0.2222149074077606 0 -0.9157348275184631
v 0.3086582720279694 0 -0.9619397521018982
v 0.5 0 -0.5
v 0.5 0 -0.5
v 0.3086582720279694 0 -0.9619397521018982
v 0.3555565774440765 0 -0.9761661887168884
v 0.4024548530578613 0 -0.9903926253318787
v 0.5 0 -0.5
v 0.5 0 -0.5
v 0.5 0 -0.5
v 0.4024548530578613 0 -0.9903926253318787
v 0.5 0 -1
v 0.5 0 -0.5
v 0.5 0 -0.5
v 0.5 0 -1
v 0.5487725734710693 0 -0.9951963424682617
v 0.5975451469421387 0 -0.9903926253318787
v 0.5 0 -0.5
v 0.5 0 -0.5
v 0.5 0 -0.5
v 0.5975451469421387 0 -0.9903926253318787
v 0.6444434523582459 0 -0.9761661887168884
v 0.6913416981697083 0 -0.9619397521018982
v 0.5 0 -0.5
v 0.5 0 -0.5
v 0.5 0 -0.5
v 0.6913416981697083 0 -0.9619397521018982
v 0.734563410282135 0 -0.9388372898101807
v 0.7777851223945618 0 -0.9157348275184631
v 0.5 0 -0.5
v 0.5 0 -0.5
v 0.5 0 -0.5
v 0.7777851223945618 0 -0.9157348275184631
v 0.8535534143447876 0 -0.8535534143447876
v 0.5 0 -0.5
v 0.5 0 -0.5
v 0.8535534143447876 0 -0.8535534143447876
v 0.884644091129303 0 -0.8156692385673523
v 0.9157348275184631 0 -0.7777851223945618
v 0.5 0 -0.5
v 0.5 0 -0.5
v 0.5 0 -0.5
v 0.9157348275184631 0 -0.7777851223945618
v 0.9388372898101807 0 -0.734563410282135
v 0.9619397521018982 0 -0.6913416981697083
v 0.5 0 -0.5
v 0.5 0 -0.5
v 0.5 0 -0.5
v 0.9619397521018982 0 -0.6913416981697083
v 0.9903926253318787 0 -0.5975451469421387
v 0.5 0 -0.5
v 0.5 0 -0.5
v 0.9903926253318787 0 -0.5975451469421387
v 1 0 -0.5
v 0.5 0 -0.5
v 0.5 0 -0.5
v 0.9903926253318787 0 -0.4024548530578613
v 1 0 -0.5
v 0.5 0 -0.5
v 0.5 0 -0.5
v 0.9619397521018982 0 -0.3086582720279694
v 0.9761661887168884 0 -0.3555565774440765
v 0.9903926253318787 0 -0.4024548530578613
v 0.5 0 -0.5
v 0.5 0 -0.5
v 0.9157348275184631 0 -0.2222149074077606
v 0.9619397521018982 0 -0.3086582720279694
v 0.5 0 -0.5
v 0.5 0 -0.5
v 0.8535534143447876 0 -0.1464466154575348
v 0.884644091129303 0 -0.1843307614326477
v 0.9157348275184631 0 -0.2222149074077606
v 0.5 0 -0.5
v 0.5 0 -0.5
v 0.7777851223945618 0 -0.08426519483327866
v 0.8156692385673523 0 -0.1153559014201164
v 0.8535534143447876 0 -0.1464466154575348
v 0.5 0 -0.5
v 0.5 0 -0.5
v 0.6913416981697083 0 -0.03806022554636002
v 0.7777851223945618 0 -0.08426519483327866
v 0.5 0 -0.5
v 0.5 0 -0.5
v 0.5975451469421387 0 -0.009607359766960144
v 0.6913416981697083 0 -0.03806022554636002
v 0.5 0 -0.5
v 0.5 0 -0.5
v 0.5 0 -6.610539893259215e-11
v 0.5975451469421387 0 -0.009607359766960144
v 0.5 0 -0.5
v 0.5 0 -0.5
v 0.4024548530578613 0 -0.009607358835637569
v 0.5 0 -6.610539893259215e-11
v 0.5 0 -0.5
v 0.5 0 -0.5
v 0.3086582720279694 0 -0.03806023299694061
v 0.4024548530578613 0 -0.009607358835637569
v 0.5 0 -0.5
v 0.5 0 -0.5
v 0.2222149074077606 0 -0.08426517993211746
v 0.3086582720279694 0 -0.03806023299694061
v 0.5 0 -0.5
v 0.5 0 -0.5
v 0.1464466154575348 0 -0.1464466005563736
v 0.1843307614326477 0 -0.1153558939695358
v 0.2222149074077606 0 -0.08426517993211746
v 0.5 0 -0.5
v 0.5 0 -0.5
v 0.08426519483327866 0 -0.2222148776054382
v 0.1153559014201164 0 -0.1843307465314865
v 0.1464466154575348 0 -0.1464466005563736
v 0.5 0 -0.5
v 0.5 0 -0.5
v 0.03806022554636002 0 -0.3086583018302918
v 0.06116271018981934 0 -0.265436589717865
v 0.08426519483327866 0 -0.2222148776054382
v 0.5 0 -0.5
v 0.5 0 -0.5
v 0.009607359766960144 0 -0.4024548530578613
v 0.02383379265666008 0 -0.3555565774440765
v 0.03806022554636002 0 -0.3086583018302918
v 0.5 0 -0.5
v 0.5 0 -0.5
v 6.473177549537468e-11 0 -0.5
v 0.009607359766960144 0 -0.4024548530578613
v 0.5 0 -0.5
v 0.5 0 -0.5
vt 0.3986780941486359 0
vt 0.3333333432674408 0
vt 0.3986780941486359 0.3318684995174408
vt 0.3333333432674408 0.3318684995174408
vt 0 0.7254019379615784
vt 0 0.7573418617248535
vt 0 0.7892818450927734
vt 0.3318684995174408 0.7254019379615784
vt 0.3318684995174408 0.7573418617248535
vt 0.3318684995174408 0.7892818450927734
vt 0.6666666865348816 0.7490800023078919
vt 0.6666666865348816 0.7817524075508118
vt 0.6666666865348816 0.8144247531890869
vt 0.99853515625 0.7490800023078919
vt 0.99853515625 0.7817524075508118
vt 0.99853515625 0.8144247531890869
vt 0.3333333432674408 0.7907466888427734
vt 0.3333333432674408 0.8546265959739685
vt 0.6652018427848816 0.7907466888427734
vt 0.6652018427848816 0.8546265959739685
vt 0.6666666865348816 0
vt 0.6666666865348816 0.06534477323293686
vt 0.99853515625 0
vt 0.99853515625 0.06534477323293686
vt 0 0.3333333432674408
vt 0 0.3972132503986359
vt 0.3318684995174408 0.3333333432674408
vt 0.3318684995174408 0.3972132503986359
vt 0.3333333432674408 0.3986780941486359
vt 0.3333333432674408 0.4306180477142334
vt 0.3333333432674408 0.4625580012798309
vt 0.6652018427848816 0.3986780941486359
vt 0.6652018427848816 0.4306180477142334
vt 0.6652018427848816 0.4625580012798309
vt 0.06534475833177567 0
vt 0 0
vt 0.06534475833177567 0.3318684995174408
vt 0 0.3318684995174408
vt 0.5653447508811951 0
vt 0.5326724052429199 0
vt 0.5 0
vt 0.5653447508811951 0.3318684995174408
vt 0.5326724052429199 0.3318684995174408
vt 0.5 0.3318684995174408
vt 0 0.5947123765945435
vt 0 0.6266523599624634
vt 0 0.6585922837257385
vt 0.3318684995174408 0.5947123765945435
vt 0.3318684995174408 0.6266523599624634
vt 0.3318684995174408 0.6585922837257385
vt 0.6666666865348816 0.5350571274757385
vt 0.6666666865348816 0.5677295327186585
vt 0.6666666865348816 0.6004019379615784
vt 0.99853515625 0.5350571274757385
vt 0.99853515625 0.5677295327186585
vt 0.99853515625 0.6004019379615784
vt 0.3333333432674408 0.6600571274757385
vt 0.3333333432674408 0.7239370942115784
vt 0.6652018427848816 0.6600571274757385
vt 0.6652018427848816 0.7239370942115784
vt 0.6666666865348816 0.3210342824459076
vt 0.6666666865348816 0.3537066578865051
vt 0.6666666865348816 0.3863790631294251
vt 0.99853515625 0.3210342824459076
vt 0.99853515625 0.3537066578865051
vt 0.99853515625 0.3863790631294251
vt 0 0.4640228450298309
vt 0 0.4959628283977509
vt 0 0.5279027819633484
vt 0.3318684995174408 0.4640228450298309
vt 0.3318684995174408 0.4959628283977509
vt 0.3318684995174408 0.5279027819633484
vt 0.3333333432674408 0.4640228450298309
vt 0.3333333432674408 0.5279027819633484
vt 0.6652018427848816 0.4640228450298309
vt 0.6652018427848816 0.5279027819633484
vt 0.3153447508811951 0
vt 0.25 0
vt 0.3153447508811951 0.3318684995174408
vt 0.25 0.3318684995174408
vt 0.2320114225149155 0
vt 0.1666666716337204 0
vt 0.2320114225149155 0.3318684995174408
vt 0.1666666716337204 0.3318684995174408
vt 0.3333333432674408 0.5293676257133484
vt 0.3333333432674408 0.5613075494766235
vt 0.3333333432674408 0.5932475328445435
vt 0.6652018427848816 0.5293676257133484
vt 0.6652018427848816 0.5932475328445435
vt 0 0.5293676257133484
vt 0 0.5932475328445435
vt 0.3318684995174408 0.5293676257133484
vt 0.3318684995174408 0.5932475328445435
vt 0.6666666865348816 0.2140228599309921
vt 0.6666666865348816 0.2466952353715897
vt 0.6666666865348816 0.2793676257133484
vt 0.99853515625 0.2140228599309921
vt 0.99853515625 0.2793676257133484
vt 0.3333333432674408 0.5947123765945435
vt 0.3333333432674408 0.6266523599624634
vt 0.3333333432674408 0.6585922837257385
vt 0.6652018427848816 0.5947123765945435
vt 0.6652018427848816 0.6585922837257385
vt 0.6666666865348816 0.4280457198619843
vt 0.6666666865348816 0.4933905005455017
vt 0.99853515625 0.4280457198619843
vt 0.99853515625 0.4933905005455017
vt 0 0.6600571274757385
vt 0 0.7239370942115784
vt 0.3318684995174408 0.6600571274757385
vt 0.3318684995174408 0.7239370942115784
vt 0.6486780643463135 0
vt 0.5833333134651184 0
vt 0.6486780643463135 0.3318684995174408
vt 0.5833333134651184 0.3318684995174408
vt 0.1486780941486359 0
vt 0.0833333358168602 0
vt 0.1486780941486359 0.3318684995174408
vt 0.0833333358168602 0.3318684995174408
vt 0.3333333432674408 0.3333333432674408
vt 0.3333333432674408 0.3972132503986359
vt 0.6652018427848816 0.3333333432674408
vt 0.6652018427848816 0.3972132503986359
vt 0 0.3986780941486359
vt 0 0.4625580012798309
vt 0.3318684995174408 0.3986780941486359
vt 0.3318684995174408 0.4625580012798309
vt 0.6666666865348816 0.1070114299654961
vt 0.6666666865348816 0.1396838128566742
vt 0.6666666865348816 0.1723562031984329
vt 0.99853515625 0.1070114299654961
vt 0.99853515625 0.1723562031984329
vt 0.3333333432674408 0.7254019379615784
vt 0.3333333432674408 0.7573418617248535
vt 0.3333333432674408 0.7892818450927734
vt 0.6652018427848816 0.7254019379615784
vt 0.6652018427848816 0.7892818450927734
vt 0.6666666865348816 0.6420685648918152
vt 0.6666666865348816 0.6747409701347351
vt 0.6666666865348816 0.707413375377655
vt 0.99853515625 0.6420685648918152
vt 0.99853515625 0.707413375377655
vt 0 0.7907466888427734
vt 0 0.8226866126060486
vt 0 0.8546265959739685
vt 0.3318684995174408 0.7907466888427734
vt 0.3318684995174408 0.8546265959739685
vt 0.4820114076137543 0
vt 0.4166666567325592 0
vt 0.4820114076137543 0.3318684995174408
vt 0.4166666567325592 0.3318684995174408
vn 0 -1 0
vn 0 -1 0
vn 0 -1 0
vn 0 -1 0
vn 0 -1 0
vn 0 -1 0
vn 0 -1 0
vn 0 -1 0
vn 0 -1 0
vn 0 -1 0
vn 0 -1 0
vn 0 -1 0
vn 0 -1 0
vn 0 -1 0
vn 0 -1 0
vn 0 -1 0
vn 0 -1 0
vn 0 -1 0
vn 0 -1 0
vn 0 -1 0
vn 0 -1 0
vn 0 -1 0
vn 0 -1 0
vn 0 -1 0
vn 0 -1 0
vn 0 -1 0
vn 0 -1 0
vn 0 -1 0
vn 0 -1 0
vn 0 -1 0
vn 0 -1 0
vn 0 -1 0
vn 0 -1 0
vn 0 -1 0
vn 0 -1 0
vn 0 -1 0
vn 0 -1 0
vn 0 -1 0
vn 0 -1 0
vn 0 -1 0
vn 0 -1 0
vn 0 -1 0
vn 0 -1 0
vn 0 -1 0
vn 0 -1 0
vn 0 -1 0
vn 0 -1 0
vn 0 -1 0
vn 0 -1 0
vn 0 -1 0
vn 0 -1 0
vn 0 -1 0
vn 0 -1 0
vn 0 -1 0
vn 0 -1 0
vn 0 -1 0
vn 0 -1 0
vn 0 -1 0
vn 0 -1 0
vn 0 -1 0
vn 0 -1 0
vn 0 -1 0
vn 0 -1 0
vn 0 -1 0
vn 0 -1 0
vn 0 -1 0
vn 0 -1 0
vn 0 -1 0
vn 0 -1 0
vn 0 -1 0
vn 0 -1 0
vn 0 -1 0
vn 0 -1 0
vn 0 -1 0
vn 0 -1 0
vn 0 -1 0
vn 0 -1 0
vn 0 -1 0
vn 0 -1 0
vn 0 -1 0
vn 0 -1 0
vn 0 -1 0
vn 0 -1 0
vn 0 -1 0
vn 0 -1 0
vn 0 -1 0
vn 0 -1 0
vn 0 -1 0
vn 0 -1 0
vn 0 -1 0
vn 0 -1 0
vn 0 -1 0
vn 0 -1 0
vn 0 -1 0
vn 0 -1 0
vn 0 -1 0
vn 0 -1 0
vn 0 -1 0
vn 0 -1 0
vn 0 -1 0
vn 0 -1 0
vn 0 -1 0
vn 0 -1 0
vn 0 -1 0
vn 0 -1 0
vn 0 -1 0
vn 0 -1 0
vn 0 -1 0
vn 0 -1 0
vn 0 -1 0
vn 0 -1 0
vn 0 -1 0
vn 0 -1 0
vn 0 -1 0
vn 0 -1 0
vn 0 -1 0
vn 0 -1 0
vn 0 -1 0
vn 0 -1 0
vn 0 -1 0
vn 0 -1 0
vn 0 -1 0
vn 0 -1 0
vn 0 -1 0
vn 0 -1 0
vn 0 -1 0
vn 0 -1 0
vn 0 -1 0
vn 0 -1 0
vn 0 -1 0
vn 0 -1 0
vn 0 -1 0
vn 0 -1 0
vn 0 -1 0
vn 0 -1 0
vn 0 -1 0
vn 0 -1 0
vn 0 -1 0
vn 0 -1 0
vn 0 -1 0
vn 0 -1 0
vn 0 -1 0
vn 0 -1 0
vn 0 -1 0
vn 0 -1 0
vn 0 -1 0
vn 0 -1 0
vn 0 -1 0
vn 0 -1 0
vn 0 -1 0
vn 0 -1 0
f 2/2/2 3/3/3 1/1/1
f 6/6/6 8/8/8 5/5/5
f 7/7/7 9/9/9 6/6/6
f 12/12/12 14/14/14 11/11/11
f 13/13/13 15/15/15 12/12/12
f 18/18/18 19/19/19 17/17/17
f 22/22/22 23/23/23 21/21/21
f 26/26/26 27/27/27 25/25/25
f 30/30/30 32/32/32 29/29/29
f 31/31/31 33/33/33 30/30/30
f 36/36/36 37/37/37 35/35/35
f 40/40/40 42/42/42 39/39/39
f 41/41/41 43/43/43 40/40/40
f 46/46/46 48/48/48 45/45/45
f 47/47/47 49/49/49 46/46/46
f 52/52/52 54/54/54 51/51/51
f 53/53/53 55/55/55 52/52/52
f 58/58/58 59/59/59 57/57/57
f 62/62/62 64/64/64 61/61/61
f 63/63/63 65/65/65 62/62/62
f 68/68/68 70/70/70 67/67/67
f 69/69/69 71/71/71 68/68/68
f 74/74/74 75/75/75 73/73/73
f 78/78/78 79/79/79 77/77/77
f 82/82/82 81/81/81 83/83/83
f 88/88/88 86/86/86 85/85/85
f 87/87/87 86/86/86 89/89/89
f 91/91/91 90/90/90 92/92/92
f 97/97/97 95/95/95 94/94/94
f 96/96/96 95/95/95 98/98/98
f 102/102/102 100/100/100 99/99/99
f 101/101/101 100/100/100 103/103/103
f 105/105/105 104/104/104 106/106/106
f 109/109/109 108/108/108 110/110/110
f 113/113/113 112/112/112 114/114/114
f 117/117/117 116/116/116 118/118/118
f 121/121/121 120/120/120 122/122/122
f 125/125/125 124/124/124 126/126/126
f 131/131/131 129/129/129 128/128/128
f 130/130/130 129/129/129 132/132/132
f 136/136/136 134/134/134 133/133/133
f 135/135/135 134/134/134 137/137/137
f 141/141/141 139/139/139 138/138/138
f 140/140/140 139/139/139 142/142/142
f 146/146/146 144/144/144 143/143/143
f 145/145/145 144/144/144 147/147/147
f 149/149/149 148/148/148 150/150/150
