# Rhino

mtllib Circle32Half.mtl
o object_1
usemtl Default
v 0.9903926253318787 0 -0.5975451469421387
v 1 0 -0.5
v 0.75 0 -0.5
v 0.5 0 -0.5
v 0.5 0 -0.5
v 0.9619397521018982 0 -0.6913416981697083
v 0.9903926253318787 0 -0.5975451469421387
v 0.5 0 -0.5
v 0.5 0 -0.5
v 0.9157348275184631 0 -0.7777851223945618
v 0.9388372898101807 0 -0.734563410282135
v 0.9619397521018982 0 -0.6913416981697083
v 0.5 0 -0.5
v 0.5 0 -0.5
v 0.8535534143447876 0 -0.8535534143447876
v 0.884644091129303 0 -0.8156692385673523
v 0.9157348275184631 0 -0.7777851223945618
v 0.5 0 -0.5
v 0.5 0 -0.5
v 0.6923220753669739 0 -0.6578346490859985
v 0.7777851223945618 0 -0.9157348275184631
v 0.8535534143447876 0 -0.8535534143447876
v 0.5 0 -0.5
v 0.5 0 -0.5
v 0.6913416981697083 0 -0.9619397521018982
v 0.734563410282135 0 -0.9388372898101807
v 0.7777851223945618 0 -0.9157348275184631
v 0.5 0 -0.5
v 0.5 0 -0.5
v 0.5975451469421387 0 -0.9903926253318787
v 0.6444434523582459 0 -0.9761661887168884
v 0.6913416981697083 0 -0.9619397521018982
v 0.5 0 -0.5
v 0.5 0 -0.5
v 0.5 0 -1
v 0.5487725734710693 0 -0.9951963424682617
v 0.5975451469421387 0 -0.9903926253318787
v 0.5 0 -0.5
v 0.5 0 -0.5
v 0.4024548530578613 0 -0.9903926253318787
v 0.5 0 -1
v 0.5 0 -0.5
v 0.5 0 -0.5
v 0.3086582720279694 0 -0.9619397521018982
v 0.3555565774440765 0 -0.9761661887168884
v 0.4024548530578613 0 -0.9903926253318787
v 0.5 0 -0.5
v 0.5 0 -0.5
v 0.2222149074077606 0 -0.9157348275184631
v 0.3086582720279694 0 -0.9619397521018982
v 0.5 0 -0.5
v 0.5 0 -0.5
v 0.1464466154575348 0 -0.8535534143447876
v 0.2222149074077606 0 -0.9157348275184631
v 0.5 0 -0.5
v 0.5 0 -0.5
v 0.08426519483327866 0 -0.7777851223945618
v 0.1464466154575348 0 -0.8535534143447876
v 0.5 0 -0.5
v 0.5 0 -0.5
v 0.03806022554636002 0 -0.6913416981697083
v 0.06116271018981934 0 -0.734563410282135
v 0.08426519483327866 0 -0.7777851223945618
v 0.5 0 -0.5
v 0.5 0 -0.5
v 0.009607359766960144 0 -0.5975451469421387
v 0.02383379265666008 0 -0.6444434523582459
v 0.03806022554636002 0 -0.6913416981697083
v 0.5 0 -0.5
v 0.5 0 -0.5
v 6.473177549537468e-11 0 -0.5
v 0.009607359766960144 0 -0.5975451469421387
v 0.5 0 -0.5
v 0.5 0 -0.5
vt 0 0.4900857210159302
vt 0 0.5866380333900452
vt 0.249267578125 0.5866380333900452
vt 0.49853515625 0.4900857210159302
vt 0.49853515625 0.5866380333900452
vt 0.5 0.0980171412229538
vt 0.5 0.1945694386959076
vt 0.99853515625 0.0980171412229538
vt 0.99853515625 0.1945694386959076
vt 0 0.0980171412229538
vt 0 0.1462932974100113
vt 0 0.1945694386959076
vt 0.49853515625 0.0980171412229538
vt 0.49853515625 0.1945694386959076
vt 0.5 0.4900857508182526
vt 0.5 0.5383619070053101
vt 0.5 0.5866380333900452
vt 0.99853515625 0.4900857508182526
vt 0.99853515625 0.5866380333900452
vt 0.749267578125 0.5383619070053101
vt 0.5 0.1960342824459076
vt 0.5 0.2925865948200226
vt 0.99853515625 0.1960342824459076
vt 0.99853515625 0.2925865948200226
vt 0.5 0.5881028771400452
vt 0.5 0.6363790631294251
vt 0.5 0.6846551895141602
vt 0.99853515625 0.5881028771400452
vt 0.99853515625 0.6846551895141602
vt 0 0.1960342824459076
vt 0 0.2443104386329651
vt 0 0.2925865948200226
vt 0.49853515625 0.1960342824459076
vt 0.49853515625 0.2925865948200226
vt 0 0.6861200332641602
vt 0 0.73439621925354
vt 0 0.7826723456382752
vt 0.49853515625 0.6861200332641602
vt 0.49853515625 0.7826723456382752
vt 0 0.3920685648918152
vt 0 0.4886208772659302
vt 0.49853515625 0.3920685648918152
vt 0.49853515625 0.4886208772659302
vt 0.5 0
vt 0.5 0.0482761487364769
vt 0.5 0.0965522974729538
vt 0.99853515625 0
vt 0.99853515625 0.0965522974729538
vt 0 0
vt 0 0.0965522974729538
vt 0.49853515625 0
vt 0.49853515625 0.0965522974729538
vt 0.5 0.3920685648918152
vt 0.5 0.4886209070682526
vt 0.99853515625 0.3920685648918152
vt 0.99853515625 0.4886209070682526
vt 0.5 0.2940514385700226
vt 0.5 0.3906037211418152
vt 0.99853515625 0.2940514385700226
vt 0.99853515625 0.3906037211418152
vt 0.5 0.6861200332641602
vt 0.5 0.73439621925354
vt 0.5 0.7826723456382752
vt 0.99853515625 0.6861200332641602
vt 0.99853515625 0.7826723456382752
vt 0 0.2940514385700226
vt 0 0.3423275947570801
vt 0 0.3906037211418152
vt 0.49853515625 0.2940514385700226
vt 0.49853515625 0.3906037211418152
vt 0 0.5881028771400452
vt 0 0.6846551895141602
vt 0.49853515625 0.5881028771400452
vt 0.49853515625 0.6846551895141602
vn 0 -1 0
vn 0 -1 0
vn 0 -1 0
vn 0 -1 0
vn 0 -1 0
vn 0 -1 0
vn 0 -1 0
vn 0 -1 0
vn 0 -1 0
vn 0 -1 0
vn 0 -1 0
vn 0 -1 0
vn 0 -1 0
vn 0 -1 0
vn 0 -1 0
vn 0 -1 0
vn 0 -1 0
vn 0 -1 0
vn 0 -1 0
vn 0 -1 0
vn 0 -1 0
vn 0 -1 0
vn 0 -1 0
vn 0 -1 0
vn 0 -1 0
vn 0 -1 0
vn 0 -1 0
vn 0 -1 0
vn 0 -1 0
vn 0 -1 0
vn 0 -1 0
vn 0 -1 0
vn 0 -1 0
vn 0 -1 0
vn 0 -1 0
vn 0 -1 0
vn 0 -1 0
vn 0 -1 0
vn 0 -1 0
vn 0 -1 0
vn 0 -1 0
vn 0 -1 0
vn 0 -1 0
vn 0 -1 0
vn 0 -1 0
vn 0 -1 0
vn 0 -1 0
vn 0 -1 0
vn 0 -1 0
vn 0 -1 0
vn 0 -1 0
vn 0 -1 0
vn 0 -1 0
vn 0 -1 0
vn 0 -1 0
vn 0 -1 0
vn 0 -1 0
vn 0 -1 0
vn 0 -1 0
vn 0 -1 0
vn 0 -1 0
vn 0 -1 0
vn 0 -1 0
vn 0 -1 0
vn 0 -1 0
vn 0 -1 0
vn 0 -1 0
vn 0 -1 0
vn 0 -1 0
vn 0 -1 0
vn 0 -1 0
vn 0 -1 0
vn 0 -1 0
vn 0 -1 0
f 3/3/3 1/1/1 2/2/2
f 1/1/1 3/3/3 4/4/4
f 7/7/7 8/8/8 6/6/6
f 13/13/13 10/10/10 11/11/11
f 12/12/12 14/14/14 11/11/11
f 20/20/20 15/15/15 16/16/16
f 20/20/20 16/16/16 17/17/17
f 15/15/15 20/20/20 18/18/18
f 17/17/17 19/19/19 20/20/20
f 22/22/22 23/23/23 21/21/21
f 28/28/28 25/25/25 26/26/26
f 27/27/27 29/29/29 26/26/26
f 33/33/33 30/30/30 31/31/31
f 32/32/32 34/34/34 31/31/31
f 38/38/38 35/35/35 36/36/36
f 37/37/37 39/39/39 36/36/36
f 41/41/41 42/42/42 40/40/40
f 47/47/47 44/44/44 45/45/45
f 46/46/46 48/48/48 45/45/45
f 50/50/50 51/51/51 49/49/49
f 54/54/54 55/55/55 53/53/53
f 58/58/58 59/59/59 57/57/57
f 64/64/64 61/61/61 62/62/62
f 63/63/63 65/65/65 62/62/62
f 69/69/69 66/66/66 67/67/67
f 68/68/68 70/70/70 67/67/67
f 72/72/72 73/73/73 71/71/71
