# Rhino

mtllib Cone32HalfNoBottom.mtl
o object_1
usemtl Default
v 1 0 -0.5
v 0.9903926253318787 0 -0.5975451469421387
v 0.5 1 -0.5
v 0.5 1 -0.5
v 0.9903926253318787 0 -0.5975451469421387
v 0.9761661887168884 0 -0.6444434523582459
v 0.9619397521018982 0 -0.6913416981697083
v 0.5 1 -0.5
v 0.5 1 -0.5
v 0.5 1 -0.5
v 0.9619397521018982 0 -0.6913416981697083
v 0.9157348275184631 0 -0.7777851223945618
v 0.5 1 -0.5
v 0.5 1 -0.5
v 0.9157348275184631 0 -0.7777851223945618
v 0.884644091129303 0 -0.8156692385673523
v 0.8535534143447876 0 -0.8535534143447876
v 0.5 1 -0.5
v 0.5 1 -0.5
v 0.5 1 -0.5
v 0.8535534143447876 0 -0.8535534143447876
v 0.7777851223945618 0 -0.9157348275184631
v 0.5 1 -0.5
v 0.5 1 -0.5
v 0.7777851223945618 0 -0.9157348275184631
v 0.734563410282135 0 -0.9388372898101807
v 0.6913416981697083 0 -0.9619397521018982
v 0.5 1 -0.5
v 0.5 1 -0.5
v 0.5 1 -0.5
v 0.6913416981697083 0 -0.9619397521018982
v 0.6444434523582459 0 -0.9761661887168884
v 0.5975451469421387 0 -0.9903926253318787
v 0.5 1 -0.5
v 0.5 1 -0.5
v 0.5 1 -0.5
v 0.5975451469421387 0 -0.9903926253318787
v 0.5 0 -1
v 0.5 1 -0.5
v 0.5 1 -0.5
v 0.5 0 -1
v 0.4024548530578613 0 -0.9903926253318787
v 0.5 1 -0.5
v 0.5 1 -0.5
v 0.4024548530578613 0 -0.9903926253318787
v 0.3086583018302918 0 -0.9619397521018982
v 0.5 1 -0.5
v 0.5 1 -0.5
v 0.3086583018302918 0 -0.9619397521018982
v 0.265436589717865 0 -0.9388372898101807
v 0.2222148776054382 0 -0.9157348275184631
v 0.5 1 -0.5
v 0.5 1 -0.5
v 0.5 1 -0.5
v 0.2222148776054382 0 -0.9157348275184631
v 0.1843307465314865 0 -0.884644091129303
v 0.1464466005563736 0 -0.8535534143447876
v 0.5 1 -0.5
v 0.5 1 -0.5
v 0.5 1 -0.5
v 0.1464466005563736 0 -0.8535534143447876
v 0.08426517993211746 0 -0.7777851223945618
v 0.5 1 -0.5
v 0.5 1 -0.5
v 0.08426517993211746 0 -0.7777851223945618
v 0.06116270646452904 0 -0.734563410282135
v 0.03806023299694061 0 -0.6913416981697083
v 0.5 1 -0.5
v 0.5 1 -0.5
v 0.5 1 -0.5
v 0.03806023299694061 0 -0.6913416981697083
v 0.009607358835637569 0 -0.5975451469421387
v 0.5 1 -0.5
v 0.5 1 -0.5
v 0.009607358835637569 0 -0.5975451469421387
v 0.004803679417818785 0 -0.5487725734710693
v 6.473160896192098e-11 0 -0.5
v 0.5 1 -0.5
v 0.5 1 -0.5
v 0.5 1 -0.5
vt 0.2596303820610046 0.6490761637687683
vt 0.2596303820610046 0.7125189304351807
vt 0.99853515625 0.6490761637687683
vt 0.99853515625 0.7125189304351807
vt 0.1932579427957535 0
vt 0.1615365594625473 0
vt 0.1298151910305023 0
vt 0.1932579427957535 0.7403696179389954
vt 0.1615365594625473 0.7403696179389954
vt 0.1298151910305023 0.7403696179389954
vt 0.2596303820610046 0.1298152357339859
vt 0.2596303820610046 0.1932580173015595
vt 0.99853515625 0.1298152357339859
vt 0.99853515625 0.1932580173015595
vt 0.2596303820610046 0.3894457221031189
vt 0.2596303820610046 0.4211671054363251
vt 0.2596303820610046 0.4528884887695313
vt 0.99853515625 0.3894457221031189
vt 0.99853515625 0.4211671054363251
vt 0.99853515625 0.4528884887695313
vt 0.2596303820610046 0.06490761786699295
vt 0.2596303820610046 0.1283503919839859
vt 0.99853515625 0.06490761786699295
vt 0.99853515625 0.1283503919839859
vt 0.1283503472805023 0
vt 0.09662897139787674 0
vt 0.06490759551525116 0
vt 0.1283503472805023 0.7403696179389954
vt 0.09662897139787674 0.7403696179389954
vt 0.06490759551525116 0.7403696179389954
vt 0.2596303820610046 0.3245381116867065
vt 0.2596303820610046 0.3562594950199127
vt 0.2596303820610046 0.3879808783531189
vt 0.99853515625 0.3245381116867065
vt 0.99853515625 0.3562594950199127
vt 0.99853515625 0.3879808783531189
vt 0.2596303820610046 0.5192609429359436
vt 0.2596303820610046 0.582703709602356
vt 0.99853515625 0.5192609429359436
vt 0.99853515625 0.582703709602356
vt 0.2596303820610046 0.7139837741851807
vt 0.2596303820610046 0.777426540851593
vt 0.99853515625 0.7139837741851807
vt 0.99853515625 0.777426540851593
vt 0.2581655383110046 0
vt 0.1947227865457535 0
vt 0.2581655383110046 0.7403696179389954
vt 0.1947227865457535 0.7403696179389954
vt 0.2596303820610046 0.1947228610515595
vt 0.2596303820610046 0.2264442592859268
vt 0.2596303820610046 0.2581656575202942
vt 0.99853515625 0.1947228610515595
vt 0.99853515625 0.2264442592859268
vt 0.99853515625 0.2581656575202942
vt 0.2596303820610046 0.4543533325195313
vt 0.2596303820610046 0.4860747158527374
vt 0.2596303820610046 0.5177960991859436
vt 0.99853515625 0.4543533325195313
vt 0.99853515625 0.4860747158527374
vt 0.99853515625 0.5177960991859436
vt 0.2596303820610046 0
vt 0.2596303820610046 0.06344277411699295
vt 0.99853515625 0
vt 0.99853515625 0.06344277411699295
vt 0.06344275176525116 0
vt 0.03172137588262558 0
vt 0 0
vt 0.06344275176525116 0.7403696179389954
vt 0.03172137588262558 0.7403696179389954
vt 0 0.7403696179389954
vt 0.2596303820610046 0.2596305012702942
vt 0.2596303820610046 0.3230732679367065
vt 0.99853515625 0.2596305012702942
vt 0.99853515625 0.3230732679367065
vt 0.2596303820610046 0.584168553352356
vt 0.2596303820610046 0.6158899068832398
vt 0.2596303820610046 0.6476113200187683
vt 0.99853515625 0.584168553352356
vt 0.99853515625 0.6158899068832398
vt 0.99853515625 0.6476113200187683
vn -0.8909766674041748 -0.4454883337020874 0.0877535417675972
vn -0.8909766674041748 -0.4454883337020874 0.0877535417675972
vn -0.8909766674041748 -0.4454883337020874 0.0877535417675972
vn -0.8909766674041748 -0.4454883337020874 0.0877535417675972
vn -0.856736958026886 -0.4454883337020874 0.2598882913589478
vn -0.856736958026886 -0.4454883337020874 0.2598882913589478
vn -0.856736958026886 -0.4454883337020874 0.2598882913589478
vn -0.856736958026886 -0.4454883337020874 0.2598882913589478
vn -0.856736958026886 -0.4454883337020874 0.2598882913589478
vn -0.856736958026886 -0.4454883337020874 0.2598882913589478
vn -0.7895733118057251 -0.4454883337020874 0.4220356941223145
vn -0.7895733118057251 -0.4454883337020874 0.4220356941223145
vn -0.7895733118057251 -0.4454883337020874 0.4220356941223145
vn -0.7895733118057251 -0.4454883337020874 0.4220356941223145
vn -0.6920667886734009 -0.4454883337020874 0.5679645538330078
vn -0.6920667886734009 -0.4454883337020874 0.5679645538330078
vn -0.6920667886734009 -0.4454883337020874 0.5679645538330078
vn -0.6920667886734009 -0.4454883337020874 0.5679645538330078
vn -0.6920667886734009 -0.4454883337020874 0.5679645538330078
vn -0.6920667886734009 -0.4454883337020874 0.5679645538330078
vn -0.567964494228363 -0.4454883337020874 0.6920667886734009
vn -0.567964494228363 -0.4454883337020874 0.6920667886734009
vn -0.567964494228363 -0.4454883337020874 0.6920667886734009
vn -0.567964494228363 -0.4454883337020874 0.6920667886734009
vn -0.4220356941223145 -0.4454883337020874 0.7895733118057251
vn -0.4220356941223145 -0.4454883337020874 0.7895733118057251
vn -0.4220356941223145 -0.4454883337020874 0.7895733118057251
vn -0.4220356941223145 -0.4454883337020874 0.7895733118057251
vn -0.4220356941223145 -0.4454883337020874 0.7895733118057251
vn -0.4220356941223145 -0.4454883337020874 0.7895733118057251
vn -0.2598883211612701 -0.4454883337020874 0.856736958026886
vn -0.2598883211612701 -0.4454883337020874 0.856736958026886
vn -0.2598883211612701 -0.4454883337020874 0.856736958026886
vn -0.2598883211612701 -0.4454883337020874 0.856736958026886
vn -0.2598883211612701 -0.4454883337020874 0.856736958026886
vn -0.2598883211612701 -0.4454883337020874 0.856736958026886
vn -0.0877535417675972 -0.4454883337020874 0.8909766674041748
vn -0.0877535417675972 -0.4454883337020874 0.8909766674041748
vn -0.0877535417675972 -0.4454883337020874 0.8909766674041748
vn -0.0877535417675972 -0.4454883337020874 0.8909766674041748
vn 0.0877535417675972 -0.4454883337020874 0.8909766674041748
vn 0.0877535417675972 -0.4454883337020874 0.8909766674041748
vn 0.0877535417675972 -0.4454883337020874 0.8909766674041748
vn 0.0877535417675972 -0.4454883337020874 0.8909766674041748
vn 0.2598882913589478 -0.4454883337020874 0.856736958026886
vn 0.2598882913589478 -0.4454883337020874 0.856736958026886
vn 0.2598882913589478 -0.4454883337020874 0.856736958026886
vn 0.2598882913589478 -0.4454883337020874 0.856736958026886
vn 0.4220356941223145 -0.4454883337020874 0.7895733118057251
vn 0.4220356941223145 -0.4454883337020874 0.7895733118057251
vn 0.4220356941223145 -0.4454883337020874 0.7895733118057251
vn 0.4220356941223145 -0.4454883337020874 0.7895733118057251
vn 0.4220356941223145 -0.4454883337020874 0.7895733118057251
vn 0.4220356941223145 -0.4454883337020874 0.7895733118057251
vn 0.5679645538330078 -0.4454883337020874 0.6920667886734009
vn 0.5679645538330078 -0.4454883337020874 0.6920667886734009
vn 0.5679645538330078 -0.4454883337020874 0.6920667886734009
vn 0.5679645538330078 -0.4454883337020874 0.6920667886734009
vn 0.5679645538330078 -0.4454883337020874 0.6920667886734009
vn 0.5679645538330078 -0.4454883337020874 0.6920667886734009
vn 0.6920667886734009 -0.4454883337020874 0.567964494228363
vn 0.6920667886734009 -0.4454883337020874 0.567964494228363
vn 0.6920667886734009 -0.4454883337020874 0.567964494228363
vn 0.6920667886734009 -0.4454883337020874 0.567964494228363
vn 0.7895733118057251 -0.4454883337020874 0.4220356941223145
vn 0.7895733118057251 -0.4454883337020874 0.4220356941223145
vn 0.7895733118057251 -0.4454883337020874 0.4220356941223145
vn 0.7895733118057251 -0.4454883337020874 0.4220356941223145
vn 0.7895733118057251 -0.4454883337020874 0.4220356941223145
vn 0.7895733118057251 -0.4454883337020874 0.4220356941223145
vn 0.856736958026886 -0.4454883337020874 0.2598883211612701
vn 0.856736958026886 -0.4454883337020874 0.2598883211612701
vn 0.856736958026886 -0.4454883337020874 0.2598883211612701
vn 0.856736958026886 -0.4454883337020874 0.2598883211612701
vn 0.8909766674041748 -0.4454883337020874 0.0877535417675972
vn 0.8909766674041748 -0.4454883337020874 0.0877535417675972
vn 0.8909766674041748 -0.4454883337020874 0.0877535417675972
vn 0.8909766674041748 -0.4454883337020874 0.0877535417675972
vn 0.8909766674041748 -0.4454883337020874 0.0877535417675972
vn 0.8909766674041748 -0.4454883337020874 0.0877535417675972
f 2/2/2 1/1/1 3/3/3
f 6/6/6 5/5/5 8/8/8
f 7/7/7 6/6/6 9/9/9
f 12/12/12 11/11/11 13/13/13
f 16/16/16 15/15/15 18/18/18
f 17/17/17 16/16/16 19/19/19
f 22/22/22 21/21/21 23/23/23
f 26/26/26 25/25/25 28/28/28
f 27/27/27 26/26/26 29/29/29
f 32/32/32 31/31/31 34/34/34
f 33/33/33 32/32/32 35/35/35
f 38/38/38 37/37/37 39/39/39
f 42/42/42 41/41/41 43/43/43
f 46/46/46 45/45/45 47/47/47
f 50/50/50 49/49/49 52/52/52
f 51/51/51 50/50/50 53/53/53
f 56/56/56 55/55/55 58/58/58
f 57/57/57 56/56/56 59/59/59
f 62/62/62 61/61/61 63/63/63
f 66/66/66 65/65/65 68/68/68
f 67/67/67 66/66/66 69/69/69
f 72/72/72 71/71/71 73/73/73
f 80/80/80 77/77/77 76/76/76
f 76/76/76 75/75/75 78/78/78
