# Rhino

mtllib Cone32NoBottom.mtl
o object_1
usemtl Default
v 0.009607358835637569 0 -0.5975451469421387
v 0.004803679417818785 0 -0.5487725734710693
v 6.473160896192098e-11 0 -0.5
v 0.5 1 -0.5
v 0.5 1 -0.5
v 0.5 1 -0.5
v 0.03806023299694061 0 -0.6913416981697083
v 0.009607358835637569 0 -0.5975451469421387
v 0.5 1 -0.5
v 0.5 1 -0.5
v 0.08426517993211746 0 -0.7777851223945618
v 0.06116270646452904 0 -0.734563410282135
v 0.03806023299694061 0 -0.6913416981697083
v 0.5 1 -0.5
v 0.5 1 -0.5
v 0.1464466005563736 0 -0.8535534143447876
v 0.08426517993211746 0 -0.7777851223945618
v 0.5 1 -0.5
v 0.5 1 -0.5
v 0.2222148776054382 0 -0.9157348275184631
v 0.1843307465314865 0 -0.884644091129303
v 0.1464466005563736 0 -0.8535534143447876
v 0.5 1 -0.5
v 0.5 1 -0.5
v 0.3086583018302918 0 -0.9619397521018982
v 0.265436589717865 0 -0.9388372898101807
v 0.2222148776054382 0 -0.9157348275184631
v 0.5 1 -0.5
v 0.5 1 -0.5
v 0.4024548530578613 0 -0.9903926253318787
v 0.3086583018302918 0 -0.9619397521018982
v 0.5 1 -0.5
v 0.5 1 -0.5
v 0.5 0 -1
v 0.4024548530578613 0 -0.9903926253318787
v 0.5 1 -0.5
v 0.5 1 -0.5
v 0.5975451469421387 0 -0.9903926253318787
v 0.5 0 -1
v 0.5 1 -0.5
v 0.5 1 -0.5
v 0.6913416981697083 0 -0.9619397521018982
v 0.6444434523582459 0 -0.9761661887168884
v 0.5975451469421387 0 -0.9903926253318787
v 0.5 1 -0.5
v 0.5 1 -0.5
v 0.7777851223945618 0 -0.9157348275184631
v 0.734563410282135 0 -0.9388372898101807
v 0.6913416981697083 0 -0.9619397521018982
v 0.5 1 -0.5
v 0.5 1 -0.5
v 0.8535534143447876 0 -0.8535534143447876
v 0.7777851223945618 0 -0.9157348275184631
v 0.5 1 -0.5
v 0.5 1 -0.5
v 0.9157348275184631 0 -0.7777851223945618
v 0.884644091129303 0 -0.8156692385673523
v 0.8535534143447876 0 -0.8535534143447876
v 0.5 1 -0.5
v 0.5 1 -0.5
v 0.9619397521018982 0 -0.6913416981697083
v 0.9157348275184631 0 -0.7777851223945618
v 0.5 1 -0.5
v 0.5 1 -0.5
v 0.9903926253318787 0 -0.5975451469421387
v 0.9761661887168884 0 -0.6444434523582459
v 0.9619397521018982 0 -0.6913416981697083
v 0.5 1 -0.5
v 0.5 1 -0.5
v 1 0 -0.5
v 0.9903926253318787 0 -0.5975451469421387
v 0.5 1 -0.5
v 0.5 1 -0.5
v 0.9903926253318787 0 -0.4024548530578613
v 1 0 -0.5
v 0.5 1 -0.5
v 0.5 1 -0.5
v 0.9619397521018982 0 -0.3086582720279694
v 0.9761661887168884 0 -0.3555565774440765
v 0.9903926253318787 0 -0.4024548530578613
v 0.5 1 -0.5
v 0.5 1 -0.5
v 0.9157348275184631 0 -0.2222149074077606
v 0.9619397521018982 0 -0.3086582720279694
v 0.5 1 -0.5
v 0.5 1 -0.5
v 0.8535534143447876 0 -0.1464466154575348
v 0.884644091129303 0 -0.1843307614326477
v 0.9157348275184631 0 -0.2222149074077606
v 0.5 1 -0.5
v 0.5 1 -0.5
v 0.7777851223945618 0 -0.08426519483327866
v 0.8156692385673523 0 -0.1153559014201164
v 0.8535534143447876 0 -0.1464466154575348
v 0.5 1 -0.5
v 0.5 1 -0.5
v 0.6913416981697083 0 -0.03806022554636002
v 0.7777851223945618 0 -0.08426519483327866
v 0.5 1 -0.5
v 0.5 1 -0.5
v 0.5975451469421387 0 -0.009607359766960144
v 0.6913416981697083 0 -0.03806022554636002
v 0.5 1 -0.5
v 0.5 1 -0.5
v 0.5 0 -6.610539893259215e-11
v 0.5975451469421387 0 -0.009607359766960144
v 0.5 1 -0.5
v 0.5 1 -0.5
v 0.4024548530578613 0 -0.009607358835637569
v 0.5 0 -6.610539893259215e-11
v 0.5 1 -0.5
v 0.5 1 -0.5
v 0.3086582720279694 0 -0.03806023299694061
v 0.3555565774440765 0 -0.02383379638195038
v 0.4024548530578613 0 -0.009607358835637569
v 0.5 1 -0.5
v 0.5 1 -0.5
v 0.2222149074077606 0 -0.08426517993211746
v 0.265436589717865 0 -0.06116270646452904
v 0.3086582720279694 0 -0.03806023299694061
v 0.5 1 -0.5
v 0.5 1 -0.5
v 0.1464466154575348 0 -0.1464466005563736
v 0.1843307614326477 0 -0.1153558939695358
v 0.2222149074077606 0 -0.08426517993211746
v 0.5 1 -0.5
v 0.5 1 -0.5
v 0.08426519483327866 0 -0.2222148776054382
v 0.1464466154575348 0 -0.1464466005563736
v 0.5 1 -0.5
v 0.5 1 -0.5
v 0.03806022554636002 0 -0.3086583018302918
v 0.06116271018981934 0 -0.265436589717865
v 0.08426519483327866 0 -0.2222148776054382
v 0.5 1 -0.5
v 0.5 1 -0.5
v 0.009607359766960144 0 -0.4024548530578613
v 0.02383379265666008 0 -0.3555565774440765
v 0.03806022554636002 0 -0.3086583018302918
v 0.5 1 -0.5
v 0.5 1 -0.5
v 6.473160896192098e-11 0 -0.5
v 0.009607359766960144 0 -0.4024548530578613
v 0.5 1 -0.5
v 0.5 1 -0.5
vt 0.8318684697151184 0
vt 0.811767578125 0
vt 0.7916666865348816 0
vt 0.8318684697151184 0.4752714931964874
vt 0.811767578125 0.4752714931964874
vt 0.7916666865348816 0.4752714931964874
vt 0.1235351711511612 0.333333432674408
vt 0.0833333432674408 0.333333432674408
vt 0.1235351711511612 0.807140052318573
vt 0.0833333432674408 0.807140052318573
vt 0.4568684995174408 0.333333432674408
vt 0.4367676079273224 0.333333432674408
vt 0.4166666865348816 0.333333432674408
vt 0.4568684995174408 0.807140052318573
vt 0.4166666865348816 0.807140052318573
vt 0 0.08333335071802139
vt 0 0.1235351860523224
vt 0.4752714931964874 0.08333335071802139
vt 0.4752714931964874 0.1235351860523224
vt 0.3318685293197632 0.333333432674408
vt 0.3117676079273224 0.333333432674408
vt 0.2916666865348816 0.333333432674408
vt 0.3318685293197632 0.807140052318573
vt 0.2916666865348816 0.807140052318573
vt 0 0.2916667461395264
vt 0 0.3117676675319672
vt 0 0.331868588924408
vt 0.4752714931964874 0.2916667461395264
vt 0.4752714931964874 0.331868588924408
vt 0.6652017831802368 0.333333432674408
vt 0.625 0.333333432674408
vt 0.6652017831802368 0.807140052318573
vt 0.625 0.807140052318573
vt 0.99853515625 0
vt 0.9583333134651184 0
vt 0.99853515625 0.4752714931964874
vt 0.9583333134651184 0.4752714931964874
vt 0.7902018427848816 0
vt 0.75 0
vt 0.7902018427848816 0.4752714931964874
vt 0.75 0.4752714931964874
vt 0.1652018427848816 0.333333432674408
vt 0.1451009213924408 0.333333432674408
vt 0.1250000149011612 0.333333432674408
vt 0.1652018427848816 0.807140052318573
vt 0.1250000149011612 0.807140052318573
vt 0.49853515625 0.333333432674408
vt 0.4784342646598816 0.333333432674408
vt 0.4583333432674408 0.333333432674408
vt 0.49853515625 0.807140052318573
vt 0.4583333432674408 0.807140052318573
vt 0 0.1250000298023224
vt 0 0.1652018576860428
vt 0.4752714931964874 0.1250000298023224
vt 0.4752714931964874 0.1652018576860428
vt 0.2902018427848816 0.333333432674408
vt 0.2701009511947632 0.333333432674408
vt 0.2500000298023224 0.333333432674408
vt 0.2902018427848816 0.807140052318573
vt 0.2500000298023224 0.807140052318573
vt 0 0.2500000596046448
vt 0 0.2902019023895264
vt 0.4752714931964874 0.2500000596046448
vt 0.4752714931964874 0.2902019023895264
vt 0.62353515625 0.333333432674408
vt 0.6034342646598816 0.333333432674408
vt 0.5833333134651184 0.333333432674408
vt 0.62353515625 0.807140052318573
vt 0.5833333134651184 0.807140052318573
vt 0.9568684697151184 0
vt 0.9166666865348816 0
vt 0.9568684697151184 0.4752714931964874
vt 0.9166666865348816 0.4752714931964874
vt 0.74853515625 0
vt 0.7083333134651184 0
vt 0.74853515625 0.4752714931964874
vt 0.7083333134651184 0.4752714931964874
vt 0.0818684995174408 0.333333432674408
vt 0.0617675855755806 0.333333432674408
vt 0.0416666716337204 0.333333432674408
vt 0.0818684995174408 0.807140052318573
vt 0.0416666716337204 0.807140052318573
vt 0.4152018427848816 0.333333432674408
vt 0.3750000298023224 0.333333432674408
vt 0.4152018427848816 0.807140052318573
vt 0.3750000298023224 0.807140052318573
vt 0 0.0416666753590107
vt 0 0.06176759302616119
vt 0 0.08186850696802139
vt 0.4752714931964874 0.0416666753590107
vt 0.4752714931964874 0.08186850696802139
vt 0.206868514418602 0.333333432674408
vt 0.1867675930261612 0.333333432674408
vt 0.1666666865348816 0.333333432674408
vt 0.206868514418602 0.807140052318573
vt 0.1666666865348816 0.807140052318573
vt 0 0.1666667014360428
vt 0 0.2068685442209244
vt 0.4752714931964874 0.1666667014360428
vt 0.4752714931964874 0.2068685442209244
vt 0.5402018427848816 0.333333432674408
vt 0.5 0.333333432674408
vt 0.5402018427848816 0.807140052318573
vt 0.5 0.807140052318573
vt 0.9152018427848816 0
vt 0.875 0
vt 0.9152018427848816 0.4752714931964874
vt 0.875 0.4752714931964874
vt 0.7068684697151184 0
vt 0.6666666269302368 0
vt 0.7068684697151184 0.4752714931964874
vt 0.6666666269302368 0.4752714931964874
vt 0.0402018278837204 0.333333432674408
vt 0.0201009139418602 0.333333432674408
vt 0 0.333333432674408
vt 0.0402018278837204 0.807140052318573
vt 0 0.807140052318573
vt 0.3735351860523224 0.333333432674408
vt 0.3534342646598816 0.333333432674408
vt 0.3333333730697632 0.333333432674408
vt 0.3735351860523224 0.807140052318573
vt 0.3333333730697632 0.807140052318573
vt 0 0
vt 0 0.02010091580450535
vt 0 0.0402018316090107
vt 0.4752714931964874 0
vt 0.4752714931964874 0.0402018316090107
vt 0.2485351860523224 0.333333432674408
vt 0.208333358168602 0.333333432674408
vt 0.2485351860523224 0.807140052318573
vt 0.208333358168602 0.807140052318573
vt 0 0.2083333879709244
vt 0 0.2284343093633652
vt 0 0.2485352158546448
vt 0.4752714931964874 0.2083333879709244
vt 0.4752714931964874 0.2485352158546448
vt 0.5818684697151184 0.333333432674408
vt 0.561767578125 0.333333432674408
vt 0.5416666865348816 0.333333432674408
vt 0.5818684697151184 0.807140052318573
vt 0.5416666865348816 0.807140052318573
vt 0.87353515625 0
vt 0.8333333134651184 0
vt 0.87353515625 0.4752714931964874
vt 0.8333333134651184 0.4752714931964874
vn 0.8909766674041748 -0.4454883337020874 0.0877535417675972
vn 0.8909766674041748 -0.4454883337020874 0.0877535417675972
vn 0.8909766674041748 -0.4454883337020874 0.0877535417675972
vn 0.8909766674041748 -0.4454883337020874 0.0877535417675972
vn 0.8909766674041748 -0.4454883337020874 0.0877535417675972
vn 0.8909766674041748 -0.4454883337020874 0.0877535417675972
vn 0.856736958026886 -0.4454883337020874 0.2598883211612701
vn 0.856736958026886 -0.4454883337020874 0.2598883211612701
vn 0.856736958026886 -0.4454883337020874 0.2598883211612701
vn 0.856736958026886 -0.4454883337020874 0.2598883211612701
vn 0.7895733118057251 -0.4454883337020874 0.4220356941223145
vn 0.7895733118057251 -0.4454883337020874 0.4220356941223145
vn 0.7895733118057251 -0.4454883337020874 0.4220356941223145
vn 0.7895733118057251 -0.4454883337020874 0.4220356941223145
vn 0.7895733118057251 -0.4454883337020874 0.4220356941223145
vn 0.6920667886734009 -0.4454883337020874 0.567964494228363
vn 0.6920667886734009 -0.4454883337020874 0.567964494228363
vn 0.6920667886734009 -0.4454883337020874 0.567964494228363
vn 0.6920667886734009 -0.4454883337020874 0.567964494228363
vn 0.5679645538330078 -0.4454883337020874 0.6920667886734009
vn 0.5679645538330078 -0.4454883337020874 0.6920667886734009
vn 0.5679645538330078 -0.4454883337020874 0.6920667886734009
vn 0.5679645538330078 -0.4454883337020874 0.6920667886734009
vn 0.5679645538330078 -0.4454883337020874 0.6920667886734009
vn 0.4220356941223145 -0.4454883337020874 0.7895733118057251
vn 0.4220356941223145 -0.4454883337020874 0.7895733118057251
vn 0.4220356941223145 -0.4454883337020874 0.7895733118057251
vn 0.4220356941223145 -0.4454883337020874 0.7895733118057251
vn 0.4220356941223145 -0.4454883337020874 0.7895733118057251
vn 0.2598882913589478 -0.4454883337020874 0.856736958026886
vn 0.2598882913589478 -0.4454883337020874 0.856736958026886
vn 0.2598882913589478 -0.4454883337020874 0.856736958026886
vn 0.2598882913589478 -0.4454883337020874 0.856736958026886
vn 0.0877535417675972 -0.4454883337020874 0.8909766674041748
vn 0.0877535417675972 -0.4454883337020874 0.8909766674041748
vn 0.0877535417675972 -0.4454883337020874 0.8909766674041748
vn 0.0877535417675972 -0.4454883337020874 0.8909766674041748
vn -0.0877535417675972 -0.4454883337020874 0.8909766674041748
vn -0.0877535417675972 -0.4454883337020874 0.8909766674041748
vn -0.0877535417675972 -0.4454883337020874 0.8909766674041748
vn -0.0877535417675972 -0.4454883337020874 0.8909766674041748
vn -0.2598883211612701 -0.4454883337020874 0.856736958026886
vn -0.2598883211612701 -0.4454883337020874 0.856736958026886
vn -0.2598883211612701 -0.4454883337020874 0.856736958026886
vn -0.2598883211612701 -0.4454883337020874 0.856736958026886
vn -0.2598883211612701 -0.4454883337020874 0.856736958026886
vn -0.4220356941223145 -0.4454883337020874 0.7895733118057251
vn -0.4220356941223145 -0.4454883337020874 0.7895733118057251
vn -0.4220356941223145 -0.4454883337020874 0.7895733118057251
vn -0.4220356941223145 -0.4454883337020874 0.7895733118057251
vn -0.4220356941223145 -0.4454883337020874 0.7895733118057251
vn -0.567964494228363 -0.4454883337020874 0.6920667886734009
vn -0.567964494228363 -0.4454883337020874 0.6920667886734009
vn -0.567964494228363 -0.4454883337020874 0.6920667886734009
vn -0.567964494228363 -0.4454883337020874 0.6920667886734009
vn -0.6920667886734009 -0.4454883337020874 0.5679645538330078
vn -0.6920667886734009 -0.4454883337020874 0.5679645538330078
vn -0.6920667886734009 -0.4454883337020874 0.5679645538330078
vn -0.6920667886734009 -0.4454883337020874 0.5679645538330078
vn -0.6920667886734009 -0.4454883337020874 0.5679645538330078
vn -0.7895733118057251 -0.4454883337020874 0.4220356941223145
vn -0.7895733118057251 -0.4454883337020874 0.4220356941223145
vn -0.7895733118057251 -0.4454883337020874 0.4220356941223145
vn -0.7895733118057251 -0.4454883337020874 0.4220356941223145
vn -0.856736958026886 -0.4454883337020874 0.2598882913589478
vn -0.856736958026886 -0.4454883337020874 0.2598882913589478
vn -0.856736958026886 -0.4454883337020874 0.2598882913589478
vn -0.856736958026886 -0.4454883337020874 0.2598882913589478
vn -0.856736958026886 -0.4454883337020874 0.2598882913589478
vn -0.8909766674041748 -0.4454883337020874 0.0877535417675972
vn -0.8909766674041748 -0.4454883337020874 0.0877535417675972
vn -0.8909766674041748 -0.4454883337020874 0.0877535417675972
vn -0.8909766674041748 -0.4454883337020874 0.0877535417675972
vn -0.8909766674041748 -0.4454883337020874 -0.0877535417675972
vn -0.8909766674041748 -0.4454883337020874 -0.0877535417675972
vn -0.8909766674041748 -0.4454883337020874 -0.0877535417675972
vn -0.8909766674041748 -0.4454883337020874 -0.0877535417675972
vn -0.856736958026886 -0.4454883337020874 -0.2598883211612701
vn -0.856736958026886 -0.4454883337020874 -0.2598883211612701
vn -0.856736958026886 -0.4454883337020874 -0.2598883211612701
vn -0.856736958026886 -0.4454883337020874 -0.2598883211612701
vn -0.856736958026886 -0.4454883337020874 -0.2598883211612701
vn -0.7895733118057251 -0.4454883337020874 -0.4220356941223145
vn -0.7895733118057251 -0.4454883337020874 -0.4220356941223145
vn -0.7895733118057251 -0.4454883337020874 -0.4220356941223145
vn -0.7895733118057251 -0.4454883337020874 -0.4220356941223145
vn -0.6920667886734009 -0.4454883337020874 -0.567964494228363
vn -0.6920667886734009 -0.4454883337020874 -0.567964494228363
vn -0.6920667886734009 -0.4454883337020874 -0.567964494228363
vn -0.6920667886734009 -0.4454883337020874 -0.567964494228363
vn -0.6920667886734009 -0.4454883337020874 -0.567964494228363
vn -0.5679645538330078 -0.4454883337020874 -0.6920667886734009
vn -0.5679645538330078 -0.4454883337020874 -0.6920667886734009
vn -0.5679645538330078 -0.4454883337020874 -0.6920667886734009
vn -0.5679645538330078 -0.4454883337020874 -0.6920667886734009
vn -0.5679645538330078 -0.4454883337020874 -0.6920667886734009
vn -0.4220356941223145 -0.4454883337020874 -0.7895733118057251
vn -0.4220356941223145 -0.4454883337020874 -0.7895733118057251
vn -0.4220356941223145 -0.4454883337020874 -0.7895733118057251
vn -0.4220356941223145 -0.4454883337020874 -0.7895733118057251
vn -0.2598882913589478 -0.4454883337020874 -0.856736958026886
vn -0.2598882913589478 -0.4454883337020874 -0.856736958026886
vn -0.2598882913589478 -0.4454883337020874 -0.856736958026886
vn -0.2598882913589478 -0.4454883337020874 -0.856736958026886
vn -0.0877535417675972 -0.4454883337020874 -0.8909766674041748
vn -0.0877535417675972 -0.4454883337020874 -0.8909766674041748
vn -0.0877535417675972 -0.4454883337020874 -0.8909766674041748
vn -0.0877535417675972 -0.4454883337020874 -0.8909766674041748
vn 0.0877535417675972 -0.4454883337020874 -0.8909766674041748
vn 0.0877535417675972 -0.4454883337020874 -0.8909766674041748
vn 0.0877535417675972 -0.4454883337020874 -0.8909766674041748
vn 0.0877535417675972 -0.4454883337020874 -0.8909766674041748
vn 0.2598883211612701 -0.4454883337020874 -0.856736958026886
vn 0.2598883211612701 -0.4454883337020874 -0.856736958026886
vn 0.2598883211612701 -0.4454883337020874 -0.856736958026886
vn 0.2598883211612701 -0.4454883337020874 -0.856736958026886
vn 0.2598883211612701 -0.4454883337020874 -0.856736958026886
vn 0.4220356941223145 -0.4454883337020874 -0.7895733118057251
vn 0.4220356941223145 -0.4454883337020874 -0.7895733118057251
vn 0.4220356941223145 -0.4454883337020874 -0.7895733118057251
vn 0.4220356941223145 -0.4454883337020874 -0.7895733118057251
vn 0.4220356941223145 -0.4454883337020874 -0.7895733118057251
vn 0.567964494228363 -0.4454883337020874 -0.6920667886734009
vn 0.567964494228363 -0.4454883337020874 -0.6920667886734009
vn 0.567964494228363 -0.4454883337020874 -0.6920667886734009
vn 0.567964494228363 -0.4454883337020874 -0.6920667886734009
vn 0.567964494228363 -0.4454883337020874 -0.6920667886734009
vn 0.6920667886734009 -0.4454883337020874 -0.5679645538330078
vn 0.6920667886734009 -0.4454883337020874 -0.5679645538330078
vn 0.6920667886734009 -0.4454883337020874 -0.5679645538330078
vn 0.6920667886734009 -0.4454883337020874 -0.5679645538330078
vn 0.7895733118057251 -0.4454883337020874 -0.4220356941223145
vn 0.7895733118057251 -0.4454883337020874 -0.4220356941223145
vn 0.7895733118057251 -0.4454883337020874 -0.4220356941223145
vn 0.7895733118057251 -0.4454883337020874 -0.4220356941223145
vn 0.7895733118057251 -0.4454883337020874 -0.4220356941223145
vn 0.856736958026886 -0.4454883337020874 -0.2598882913589478
vn 0.856736958026886 -0.4454883337020874 -0.2598882913589478
vn 0.856736958026886 -0.4454883337020874 -0.2598882913589478
vn 0.856736958026886 -0.4454883337020874 -0.2598882913589478
vn 0.856736958026886 -0.4454883337020874 -0.2598882913589478
vn 0.8909766674041748 -0.4454883337020874 -0.0877535417675972
vn 0.8909766674041748 -0.4454883337020874 -0.0877535417675972
vn 0.8909766674041748 -0.4454883337020874 -0.0877535417675972
vn 0.8909766674041748 -0.4454883337020874 -0.0877535417675972
f 2/2/2 1/1/1 4/4/4
f 3/3/3 2/2/2 5/5/5
f 8/8/8 7/7/7 9/9/9
f 14/14/14 12/12/12 11/11/11
f 13/13/13 12/12/12 15/15/15
f 17/17/17 16/16/16 18/18/18
f 23/23/23 21/21/21 20/20/20
f 22/22/22 21/21/21 24/24/24
f 28/28/28 26/26/26 25/25/25
f 27/27/27 26/26/26 29/29/29
f 31/31/31 30/30/30 32/32/32
f 35/35/35 34/34/34 36/36/36
f 39/39/39 38/38/38 40/40/40
f 45/45/45 43/43/43 42/42/42
f 44/44/44 43/43/43 46/46/46
f 50/50/50 48/48/48 47/47/47
f 49/49/49 48/48/48 51/51/51
f 53/53/53 52/52/52 54/54/54
f 59/59/59 57/57/57 56/56/56
f 58/58/58 57/57/57 60/60/60
f 62/62/62 61/61/61 63/63/63
f 68/68/68 66/66/66 65/65/65
f 67/67/67 66/66/66 69/69/69
f 71/71/71 70/70/70 72/72/72
f 75/75/75 74/74/74 76/76/76
f 81/81/81 79/79/79 78/78/78
f 80/80/80 79/79/79 82/82/82
f 84/84/84 83/83/83 85/85/85
f 90/90/90 88/88/88 87/87/87
f 89/89/89 88/88/88 91/91/91
f 95/95/95 93/93/93 92/92/92
f 94/94/94 93/93/93 96/96/96
f 98/98/98 97/97/97 99/99/99
f 102/102/102 101/101/101 103/103/103
f 106/106/106 105/105/105 107/107/107
f 110/110/110 109/109/109 111/111/111
f 116/116/116 114/114/114 113/113/113
f 115/115/115 114/114/114 117/117/117
f 121/121/121 119/119/119 118/118/118
f 120/120/120 119/119/119 122/122/122
f 126/126/126 124/124/124 123/123/123
f 125/125/125 124/124/124 127/127/127
f 129/129/129 128/128/128 130/130/130
f 135/135/135 133/133/133 132/132/132
f 134/134/134 133/133/133 136/136/136
f 140/140/140 138/138/138 137/137/137
f 139/139/139 138/138/138 141/141/141
f 143/143/143 142/142/142 144/144/144
