# Rhino

mtllib ECone32HalfNoBottom.mtl
o object_1
usemtl Default
v 1 0 -0.5
v 0.9903926253318787 0 -0.5975451469421387
v 0 1 -0.5
v 0 1 -0.5
v 0.9903926253318787 0 -0.5975451469421387
v 0.9619397521018982 0 -0.6913416981697083
v 0 1 -0.5
v 0 1 -0.5
v 0.9619397521018982 0 -0.6913416981697083
v 0.9157348275184631 0 -0.7777851223945618
v 0 1 -0.5
v 0 1 -0.5
v 0.9157348275184631 0 -0.7777851223945618
v 0.884644091129303 0 -0.8156692385673523
v 0.8535534143447876 0 -0.8535534143447876
v 0 1 -0.5
v 0 1 -0.5
v 0 1 -0.5
v 0.8535534143447876 0 -0.8535534143447876
v 0.7777851223945618 0 -0.9157348275184631
v 0 1 -0.5
v 0 1 -0.5
v 0.7777851223945618 0 -0.9157348275184631
v 0.6913416981697083 0 -0.9619397521018982
v 0 1 -0.5
v 0 1 -0.5
v 0.6913416981697083 0 -0.9619397521018982
v 0.6444434523582459 0 -0.9761661887168884
v 0.5975451469421387 0 -0.9903926253318787
v 0 1 -0.5
v 0 1 -0.5
v 0 1 -0.5
v 0.5975451469421387 0 -0.9903926253318787
v 0.5 0 -1
v 0 1 -0.5
v 0 1 -0.5
v 0.5 0 -1
v 0.4024548530578613 0 -0.9903926253318787
v 0 1 -0.5
v 0 1 -0.5
v 0.4024548530578613 0 -0.9903926253318787
v 0.3086583018302918 0 -0.9619397521018982
v 0 1 -0.5
v 0 1 -0.5
v 0.3086583018302918 0 -0.9619397521018982
v 0.2222148776054382 0 -0.9157348275184631
v 0 1 -0.5
v 0 1 -0.5
v 0.2222148776054382 0 -0.9157348275184631
v 0.1843307465314865 0 -0.884644091129303
v 0.1464466005563736 0 -0.8535534143447876
v 0 1 -0.5
v 0 1 -0.5
v 0 1 -0.5
v 0.1464466005563736 0 -0.8535534143447876
v 0.1153558939695358 0 -0.8156692385673523
v 0.08426517993211746 0 -0.7777851223945618
v 0 1 -0.5
v 0 1 -0.5
v 0 1 -0.5
v 0.08426517993211746 0 -0.7777851223945618
v 0.03806023299694061 0 -0.6913416981697083
v 0 1 -0.5
v 0 1 -0.5
v 0.03806023299694061 0 -0.6913416981697083
v 0.009607358835637569 0 -0.5975451469421387
v 0 1 -0.5
v 0 1 -0.5
v 0.009607358835637569 0 -0.5975451469421387
v 6.473160896192098e-11 0 -0.5
v 0 1 -0.5
v 0 1 -0.5
vt 0.99853515625 0
vt 0.9375 0
vt 0.99853515625 0.9002993702888489
vt 0.9375 0.9002993702888489
vt 0.93603515625 0
vt 0.875 0
vt 0.93603515625 0.8995956778526306
vt 0.875 0.8995956778526306
vt 0.87353515625 0
vt 0.8125 0
vt 0.87353515625 0.8931426405906677
vt 0.8125 0.8931426405906677
vt 0.81103515625 0
vt 0.780517578125 0
vt 0.75 0
vt 0.81103515625 0.8825629353523254
vt 0.780517578125 0.8825629353523254
vt 0.75 0.8825629353523254
vt 0.74853515625 0
vt 0.6875 0
vt 0.74853515625 0.8681215643882752
vt 0.6875 0.8681215643882752
vt 0.68603515625 0
vt 0.625 0
vt 0.68603515625 0.850193202495575
vt 0.625 0.850193202495575
vt 0.62353515625 0
vt 0.593017578125 0
vt 0.5625 0
vt 0.62353515625 0.8292656540870667
vt 0.593017578125 0.8292656540870667
vt 0.5625 0.8292656540870667
vt 0.56103515625 0
vt 0.5 0
vt 0.56103515625 0.8059434294700623
vt 0.5 0.8059434294700623
vt 0.49853515625 0
vt 0.4375 0
vt 0.49853515625 0.7809507250785828
vt 0.4375 0.7809507250785828
vt 0.43603515625 0
vt 0.375 0
vt 0.43603515625 0.7551312446594238
vt 0.375 0.7551312446594238
vt 0.37353515625 0
vt 0.3125 0
vt 0.37353515625 0.7294425964355469
vt 0.3125 0.7294425964355469
vt 0.31103515625 0
vt 0.280517578125 0
vt 0.25 0
vt 0.31103515625 0.7049393653869629
vt 0.280517578125 0.7049393653869629
vt 0.25 0.7049393653869629
vt 0.24853515625 0
vt 0.2180175632238388 0
vt 0.1874999850988388 0
vt 0.24853515625 0.6827393174171448
vt 0.2180175632238388 0.6827393174171448
vt 0.1874999850988388 0.6827393174171448
vt 0.1860351413488388 0
vt 0.125 0
vt 0.1860351413488388 0.6639658808708191
vt 0.125 0.6639658808708191
vt 0.12353515625 0
vt 0.0624999962747097 0
vt 0.12353515625 0.6496647000312805
vt 0.0624999962747097 0.6496647000312805
vt 0.0610351525247097 0
vt 0 0
vt 0.0610351525247097 0.6406992673873901
vt 0 0.6406992673873901
vn -0.7053981423377991 -0.7053981423377991 0.06947565078735352
vn -0.7053981423377991 -0.7053981423377991 0.06947565078735352
vn -0.7053981423377991 -0.7053981423377991 0.06947565078735352
vn -0.7053981423377991 -0.7053981423377991 0.06947565078735352
vn -0.6848056316375732 -0.6984898447990418 0.2077334970235825
vn -0.6848056316375732 -0.6984898447990418 0.2077334970235825
vn -0.6848056316375732 -0.6984898447990418 0.2077334970235825
vn -0.6848056316375732 -0.6984898447990418 0.2077334970235825
vn -0.6430563926696777 -0.6843496561050415 0.3437207937240601
vn -0.6430563926696777 -0.6843496561050415 0.3437207937240601
vn -0.6430563926696777 -0.6843496561050415 0.3437207937240601
vn -0.6430563926696777 -0.6843496561050415 0.3437207937240601
vn -0.5791309475898743 -0.6623562574386597 0.4752804934978485
vn -0.5791309475898743 -0.6623562574386597 0.4752804934978485
vn -0.5791309475898743 -0.6623562574386597 0.4752804934978485
vn -0.5791309475898743 -0.6623562574386597 0.4752804934978485
vn -0.5791309475898743 -0.6623562574386597 0.4752804934978485
vn -0.5791309475898743 -0.6623562574386597 0.4752804934978485
vn -0.4918100833892822 -0.6316609382629395 0.5992723107337952
vn -0.4918100833892822 -0.6316609382629395 0.5992723107337952
vn -0.4918100833892822 -0.6316609382629395 0.5992723107337952
vn -0.4918100833892822 -0.6316609382629395 0.5992723107337952
vn -0.3801443874835968 -0.5913413166999817 0.7112001776695252
vn -0.3801443874835968 -0.5913413166999817 0.7112001776695252
vn -0.3801443874835968 -0.5913413166999817 0.7112001776695252
vn -0.3801443874835968 -0.5913413166999817 0.7112001776695252
vn -0.244194820523262 -0.540684700012207 0.8050024509429932
vn -0.244194820523262 -0.540684700012207 0.8050024509429932
vn -0.244194820523262 -0.540684700012207 0.8050024509429932
vn -0.244194820523262 -0.540684700012207 0.8050024509429932
vn -0.244194820523262 -0.540684700012207 0.8050024509429932
vn -0.244194820523262 -0.540684700012207 0.8050024509429932
vn -0.08600732684135437 -0.4796272218227387 0.8732470870018005
vn -0.08600732684135437 -0.4796272218227387 0.8732470870018005
vn -0.08600732684135437 -0.4796272218227387 0.8732470870018005
vn -0.08600732684135437 -0.4796272218227387 0.8732470870018005
vn 0.0894312709569931 -0.4092898368835449 0.9080109596252441
vn 0.0894312709569931 -0.4092898368835449 0.9080109596252441
vn 0.0894312709569931 -0.4092898368835449 0.9080109596252441
vn 0.0894312709569931 -0.4092898368835449 0.9080109596252441
vn 0.2737777829170227 -0.3324081897735596 0.9025245308876038
vn 0.2737777829170227 -0.3324081897735596 0.9025245308876038
vn 0.2737777829170227 -0.3324081897735596 0.9025245308876038
vn 0.2737777829170227 -0.3324081897735596 0.9025245308876038
vn 0.4560172855854034 -0.2533496618270874 0.8531484007835388
vn 0.4560172855854034 -0.2533496618270874 0.8531484007835388
vn 0.4560172855854034 -0.2533496618270874 0.8531484007835388
vn 0.4560172855854034 -0.2533496618270874 0.8531484007835388
vn 0.6243161559104919 -0.1775301992893219 0.7607314586639404
vn 0.6243161559104919 -0.1775301992893219 0.7607314586639404
vn 0.6243161559104919 -0.1775301992893219 0.7607314586639404
vn 0.6243161559104919 -0.1775301992893219 0.7607314586639404
vn 0.6243161559104919 -0.1775301992893219 0.7607314586639404
vn 0.6243161559104919 -0.1775301992893219 0.7607314586639404
vn 0.7682845592498779 -0.1104079782962799 0.6305148005485535
vn 0.7682845592498779 -0.1104079782962799 0.6305148005485535
vn 0.7682845592498779 -0.1104079782962799 0.6305148005485535
vn 0.7682845592498779 -0.1104079782962799 0.6305148005485535
vn 0.7682845592498779 -0.1104079782962799 0.6305148005485535
vn 0.7682845592498779 -0.1104079782962799 0.6305148005485535
vn 0.8805104494094849 -0.05654112994670868 0.4706425964832306
vn 0.8805104494094849 -0.05654112994670868 0.4706425964832306
vn 0.8805104494094849 -0.05654112994670868 0.4706425964832306
vn 0.8805104494094849 -0.05654112994670868 0.4706425964832306
vn 0.9567654132843018 -0.01911869831383228 0.2902316153049469
vn 0.9567654132843018 -0.01911869831383228 0.2902316153049469
vn 0.9567654132843018 -0.01911869831383228 0.2902316153049469
vn 0.9567654132843018 -0.01911869831383228 0.2902316153049469
vn 0.9951847195625305 6.131534169284691e-11 0.0980171337723732
vn 0.9951847195625305 6.131533475395301e-11 0.0980171337723732
vn 0.9951847195625305 6.131533475395301e-11 0.0980171337723732
vn 0.9951847195625305 6.131533475395301e-11 0.0980171337723732
f 2/2/2 1/1/1 3/3/3
f 6/6/6 5/5/5 7/7/7
f 10/10/10 9/9/9 11/11/11
f 14/14/14 13/13/13 16/16/16
f 15/15/15 14/14/14 17/17/17
f 20/20/20 19/19/19 21/21/21
f 24/24/24 23/23/23 25/25/25
f 28/28/28 27/27/27 30/30/30
f 29/29/29 28/28/28 31/31/31
f 34/34/34 33/33/33 35/35/35
f 38/38/38 37/37/37 39/39/39
f 42/42/42 41/41/41 43/43/43
f 46/46/46 45/45/45 47/47/47
f 50/50/50 49/49/49 52/52/52
f 51/51/51 50/50/50 53/53/53
f 56/56/56 55/55/55 58/58/58
f 57/57/57 56/56/56 59/59/59
f 62/62/62 61/61/61 63/63/63
f 66/66/66 65/65/65 67/67/67
f 70/70/70 69/69/69 71/71/71
