# Rhino

mtllib ManholeCoverFrame3D.mtl
o object_1
usemtl Default
v 7 0 0
v 2 0 0
v 7 0 -2
v 4 0 -2
v 4 0 -9
v 2 0 -9
v 2 0 -7
v 0 0 -7
v 0 0 -5
v 2 0 -5
v 2 0 0
v 2 1 0
v 7 0 0
v 7 1 0
v 2 0 -5
v 2 1 -5
v 2 0 0
v 2 1 0
v 0 0 -5
v 0 1 -5
v 2 0 -5
v 2 1 -5
v 0 0 -7
v 0 1 -7
v 0 0 -5
v 0 1 -5
v 2 0 -7
v 2 1 -7
v 0 0 -7
v 0 1 -7
v 2 0 -9
v 2 1 -9
v 2 0 -7
v 2 1 -7
v 4 0 -9
v 4 1 -9
v 2 0 -9
v 2 1 -9
v 4 0 -2
v 4 1 -2
v 4 0 -9
v 4 1 -9
v 7 0 -2
v 7 1 -2
v 4 0 -2
v 4 1 -2
v 7 0 0
v 7 1 0
v 7 0 -2
v 7 1 -2
v 7 1 0
v 2 1 0
v 2 1 -5
v 0 1 -5
v 0 1 -7
v 2 1 -7
v 2 1 -9
v 4 1 -9
v 4 1 -2
v 7 1 -2
vt 0.4430003464221954 0.8606818318367004
vt 0.4430003464221954 0.5553351044654846
vt 0.5652301907539368 0.8606818318367004
vt 0.5652301907539368 0.6774738430976868
vt 0.993034839630127 0.6774738430976868
vt 0.993034839630127 0.5553351044654846
vt 0.8708049058914185 0.5553351044654846
vt 0.8708049058914185 0.4331964254379273
vt 0.7485750317573547 0.4331964254379273
vt 0.7485750317573547 0.5553351044654846
vt 0.4375 0.3063725531101227
vt 0.4375 0.3661822080612183
vt 0.7438725233078003 0.3063725531101227
vt 0.7438725233078003 0.3661822080612183
vt 0.4375 0.122549019753933
vt 0.4375 0.1823586821556091
vt 0.7438725233078003 0.122549019753933
vt 0.7438725233078003 0.1823586821556091
vt 0.639399528503418 0.1838235259056091
vt 0.578125 0.1838235259056091
vt 0.639399528503418 0.3049077093601227
vt 0.578125 0.3049077093601227
vt 0.4987744987010956 0.1838235259056091
vt 0.4375 0.1838235259056091
vt 0.4987744987010956 0.3049077093601227
vt 0.4375 0.3049077093601227
vt 0.920649528503418 0.1838235259056091
vt 0.859375 0.1838235259056091
vt 0.920649528503418 0.3049077093601227
vt 0.859375 0.3049077093601227
vt 0.780024528503418 0.1838235259056091
vt 0.71875 0.1838235259056091
vt 0.780024528503418 0.3049077093601227
vt 0.71875 0.3049077093601227
vt 0.578125 0
vt 0.578125 0.05980966612696648
vt 0.7006739974021912 0
vt 0.7006739974021912 0.05980966612696648
vt 0.4375 0.3676470518112183
vt 0.4375 0.4274567365646362
vt 0.8664215803146362 0.3676470518112183
vt 0.8664215803146362 0.4274567365646362
vt 0.578125 0.06127450987696648
vt 0.578125 0.121084176003933
vt 0.7619485259056091 0.06127450987696648
vt 0.7619485259056091 0.121084176003933
vt 0.4987744987010956 0
vt 0.4375 0
vt 0.4987744987010956 0.121084176003933
vt 0.4375 0.121084176003933
vt 0.4317602813243866 0.5569852590560913
vt 0.1264135539531708 0.5569852590560913
vt 0.1264135539531708 0.2506127655506134
vt 0.004274854436516762 0.2506127655506134
vt 0.004274854436516762 0.1280637234449387
vt 0.1264135539531708 0.1280637234449387
vt 0.1264135539531708 0.005514706019312143
vt 0.2485522478818893 0.005514706019312143
vt 0.2485522478818893 0.4344362914562225
vt 0.4317602813243866 0.4344362914562225
vn 0 -1 0
vn 0 -1 0
vn 0 -1 0
vn 0 -1 0
vn 0 -1 0
vn 0 -1 0
vn 0 -1 0
vn 0 -1 0
vn 0 -1 0
vn 0 -1 0
vn 0 0 1
vn 0 0 1
vn 0 0 1
vn 0 0 1
vn -1 0 0
vn -1 0 0
vn -1 0 0
vn -1 0 0
vn 0 0 1
vn 0 0 1
vn 0 0 1
vn 0 0 1
vn -1 0 0
vn -1 0 0
vn -1 0 0
vn -1 0 0
vn 0 0 -1
vn 0 0 -1
vn 0 0 -1
vn 0 0 -1
vn -1 0 0
vn -1 0 0
vn -1 0 0
vn -1 0 0
vn 0 0 -1
vn 0 0 -1
vn 0 0 -1
vn 0 0 -1
vn 1 0 0
vn 1 0 0
vn 1 0 0
vn 1 0 0
vn 0 0 -1
vn 0 0 -1
vn 0 0 -1
vn 0 0 -1
vn 1 0 0
vn 1 0 0
vn 1 0 0
vn 1 0 0
vn 0 1 0
vn 0 1 0
vn 0 1 0
vn 0 1 0
vn 0 1 0
vn 0 1 0
vn 0 1 0
vn 0 1 0
vn 0 1 0
vn 0 1 0
f 7/7/7 10/10/10 9/9/9 8/8/8
f 5/5/5 10/10/10 7/7/7
f 7/7/7 6/6/6 5/5/5
f 10/10/10 4/4/4 2/2/2
f 1/1/1 2/2/2 4/4/4 3/3/3
f 5/5/5 4/4/4 10/10/10
f 12/12/12 11/11/11 13/13/13 14/14/14
f 16/16/16 15/15/15 17/17/17 18/18/18
f 20/20/20 19/19/19 21/21/21 22/22/22
f 24/24/24 23/23/23 25/25/25 26/26/26
f 28/28/28 27/27/27 29/29/29 30/30/30
f 32/32/32 31/31/31 33/33/33 34/34/34
f 36/36/36 35/35/35 37/37/37 38/38/38
f 40/40/40 39/39/39 41/41/41 42/42/42
f 44/44/44 43/43/43 45/45/45 46/46/46
f 48/48/48 47/47/47 49/49/49 50/50/50
f 56/56/56 55/55/55 54/54/54 53/53/53
f 58/58/58 56/56/56 53/53/53
f 56/56/56 58/58/58 57/57/57
f 53/53/53 52/52/52 59/59/59
f 51/51/51 60/60/60 59/59/59 52/52/52
f 58/58/58 53/53/53 59/59/59
