# This file uses centimeters as units for non-parametric coordinates.

mtllib pillar.mtl
v 1.414213 0.000000 -0.643573
v 0.000000 0.000000 -0.910149
v -1.414213 0.000000 -0.643573
v -2.000000 0.000000 0.000000
v -1.414213 0.000000 0.643573
v 0.000000 0.000000 0.910149
v 1.414214 0.000000 0.643573
v 2.000000 0.000000 0.000000
v 0.845947 1.600000 -0.546768
v 0.000000 1.600000 -0.773247
v -0.845947 1.600000 -0.546768
v -1.196350 1.600000 0.000000
v -0.845947 1.600000 0.546768
v 0.000000 1.600000 0.773247
v 0.845947 1.600000 0.546768
v 1.196350 1.600000 0.000000
v 0.551621 3.200000 -0.440235
v 0.000000 3.200000 -0.622587
v -0.551621 3.200000 -0.440235
v -0.780110 3.200000 0.000000
v -0.551621 3.200000 0.440235
v 0.000000 3.200000 0.622587
v 0.551621 3.200000 0.440235
v 0.780110 3.200000 0.000000
v 0.551621 4.800000 -0.440235
v 0.000000 4.800000 -0.622587
v -0.551621 4.800000 -0.440235
v -0.780110 4.800000 0.000000
v -0.551621 4.800000 0.440235
v 0.000000 4.800000 0.622587
v 0.551621 4.800000 0.440235
v 0.780110 4.800000 0.000000
v 0.845947 6.400000 -0.546768
v 0.000000 6.400000 -0.773247
v -0.845947 6.400000 -0.546768
v -1.196350 6.400000 0.000000
v -0.845947 6.400000 0.546768
v 0.000000 6.400000 0.773247
v 0.845947 6.400000 0.546768
v 1.196350 6.400000 0.000000
v 1.414213 8.000000 -0.643573
v 0.000000 8.000000 -0.910149
v -1.414213 8.000000 -0.643573
v -2.000000 8.000000 0.000000
v -1.414213 8.000000 0.643573
v 0.000000 8.000000 0.910149
v 1.414214 8.000000 0.643573
v 2.000000 8.000000 0.000000
vt 0.375000 0.312500
vt 0.406250 0.312500
vt 0.437500 0.312500
vt 0.468750 0.312500
vt 0.500000 0.312500
vt 0.531250 0.312500
vt 0.562500 0.312500
vt 0.593750 0.312500
vt 0.625000 0.312500
vt 0.375000 0.387688
vt 0.406250 0.387688
vt 0.437500 0.387688
vt 0.468750 0.387688
vt 0.500000 0.387688
vt 0.531250 0.387688
vt 0.562500 0.387688
vt 0.593750 0.387688
vt 0.625000 0.387688
vt 0.375000 0.462876
vt 0.406250 0.462876
vt 0.437500 0.462876
vt 0.468750 0.462876
vt 0.500000 0.462876
vt 0.531250 0.462876
vt 0.562500 0.462876
vt 0.593750 0.462876
vt 0.625000 0.462876
vt 0.375000 0.538064
vt 0.406250 0.538064
vt 0.437500 0.538064
vt 0.468750 0.538064
vt 0.500000 0.538064
vt 0.531250 0.538064
vt 0.562500 0.538064
vt 0.593750 0.538064
vt 0.625000 0.538064
vt 0.375000 0.613252
vt 0.406250 0.613252
vt 0.437500 0.613252
vt 0.468750 0.613252
vt 0.500000 0.613252
vt 0.531250 0.613252
vt 0.562500 0.613252
vt 0.593750 0.613252
vt 0.625000 0.613252
vt 0.375000 0.688440
vt 0.406250 0.688440
vt 0.437500 0.688440
vt 0.468750 0.688440
vt 0.500000 0.688440
vt 0.531250 0.688440
vt 0.562500 0.688440
vt 0.593750 0.688440
vt 0.625000 0.688440
vn 0.432487 0.204188 -0.878216
vn -0.000000 0.111082 -0.993811
vn 0.000000 0.108947 -0.994048
vn 0.476877 0.177998 -0.860758
vn -0.432487 0.204188 -0.878216
vn -0.476877 0.177999 -0.860758
vn -0.911062 0.412270 -0.000000
vn -0.945996 0.324180 -0.000000
vn -0.432487 0.204188 0.878215
vn -0.476877 0.177999 0.860758
vn -0.000000 0.111082 0.993811
vn -0.000000 0.108947 0.994048
vn 0.432487 0.204188 0.878216
vn 0.476877 0.177999 0.860758
vn 0.911062 0.412270 -0.000000
vn 0.945995 0.324180 -0.000000
vn 0.000000 0.054087 -0.998536
vn 0.544814 0.075789 -0.835125
vn -0.544814 0.075789 -0.835125
vn -0.993023 0.117920 0.000000
vn -0.544814 0.075789 0.835125
vn -0.000000 0.054087 0.998536
vn 0.544814 0.075789 0.835125
vn 0.993023 0.117920 -0.000000
vn 0.000000 -0.054087 -0.998536
vn 0.544814 -0.075789 -0.835125
vn -0.544814 -0.075789 -0.835125
vn -0.993023 -0.117920 0.000000
vn -0.544814 -0.075789 0.835125
vn -0.000000 -0.054087 0.998536
vn 0.544814 -0.075789 0.835125
vn 0.993023 -0.117920 -0.000000
vn 0.000000 -0.108947 -0.994048
vn 0.476877 -0.177999 -0.860758
vn -0.476877 -0.177998 -0.860758
vn -0.945995 -0.324180 0.000000
vn -0.476877 -0.177998 0.860758
vn -0.000000 -0.108947 0.994048
vn 0.476877 -0.177999 0.860758
vn 0.945996 -0.324180 -0.000000
vn -0.000000 -0.111082 -0.993811
vn 0.432487 -0.204188 -0.878216
vn -0.432487 -0.204188 -0.878216
vn -0.911062 -0.412270 0.000000
vn -0.432487 -0.204188 0.878216
vn -0.000000 -0.111082 0.993811
vn 0.432487 -0.204188 0.878216
vn 0.911062 -0.412270 -0.000000
s 1
usemtl initialShadingGroup
f 1/1/1 2/2/2 10/11/3 9/10/4
f 2/2/2 3/3/5 11/12/6 10/11/3
f 3/3/5 4/4/7 12/13/8 11/12/6
f 4/4/7 5/5/9 13/14/10 12/13/8
f 5/5/9 6/6/11 14/15/12 13/14/10
f 6/6/11 7/7/13 15/16/14 14/15/12
f 7/7/13 8/8/15 16/17/16 15/16/14
f 8/8/15 1/9/1 9/18/4 16/17/16
f 9/10/4 10/11/3 18/20/17 17/19/18
f 10/11/3 11/12/6 19/21/19 18/20/17
f 11/12/6 12/13/8 20/22/20 19/21/19
f 12/13/8 13/14/10 21/23/21 20/22/20
f 13/14/10 14/15/12 22/24/22 21/23/21
f 14/15/12 15/16/14 23/25/23 22/24/22
f 15/16/14 16/17/16 24/26/24 23/25/23
f 16/17/16 9/18/4 17/27/18 24/26/24
f 17/19/18 18/20/17 26/29/25 25/28/26
f 18/20/17 19/21/19 27/30/27 26/29/25
f 19/21/19 20/22/20 28/31/28 27/30/27
f 20/22/20 21/23/21 29/32/29 28/31/28
f 21/23/21 22/24/22 30/33/30 29/32/29
f 22/24/22 23/25/23 31/34/31 30/33/30
f 23/25/23 24/26/24 32/35/32 31/34/31
f 24/26/24 17/27/18 25/36/26 32/35/32
f 25/28/26 26/29/25 34/38/33 33/37/34
f 26/29/25 27/30/27 35/39/35 34/38/33
f 27/30/27 28/31/28 36/40/36 35/39/35
f 28/31/28 29/32/29 37/41/37 36/40/36
f 29/32/29 30/33/30 38/42/38 37/41/37
f 30/33/30 31/34/31 39/43/39 38/42/38
f 31/34/31 32/35/32 40/44/40 39/43/39
f 32/35/32 25/36/26 33/45/34 40/44/40
f 33/37/34 34/38/33 42/47/41 41/46/42
f 34/38/33 35/39/35 43/48/43 42/47/41
f 35/39/35 36/40/36 44/49/44 43/48/43
f 36/40/36 37/41/37 45/50/45 44/49/44
f 37/41/37 38/42/38 46/51/46 45/50/45
f 38/42/38 39/43/39 47/52/47 46/51/46
f 39/43/39 40/44/40 48/53/48 47/52/47
f 40/44/40 33/45/34 41/54/42 48/53/48
