<svg id="Layer_1" data-name="Layer 1" xmlns="http://www.w3.org/2000/svg" viewBox="0 0 23 19"><defs><style>.cls-1,.cls-2{fill:#fff;}.cls-2{stroke:#000;stroke-miterlimit:10;stroke-width:1.05px;}</style></defs><title>code</title><g id="_Group_" data-name="&lt;Group&gt;"><path class="cls-1" d="M.52,3V1.69A1.17,1.17,0,0,1,1.68.52H21.31a1.18,1.18,0,0,1,1.17,1.17V3Z"/><path d="M21.31,1.05a.63.63,0,0,1,.64.64v.76H1.05V1.69a.63.63,0,0,1,.63-.64H21.31m0-1H1.68A1.69,1.69,0,0,0,0,1.69V3.5H23V1.69A1.69,1.69,0,0,0,21.31,0Z"/><path class="cls-1" d="M1.68,18.48A1.17,1.17,0,0,1,.52,17.31V1.69A1.17,1.17,0,0,1,1.68.52H21.31a1.18,1.18,0,0,1,1.17,1.17V17.31a1.18,1.18,0,0,1-1.17,1.17Z"/><path d="M21.31,1.05a.63.63,0,0,1,.64.64V17.31a.63.63,0,0,1-.64.64H1.68a.63.63,0,0,1-.63-.64V1.69a.63.63,0,0,1,.63-.64H21.31m0-1H1.68A1.69,1.69,0,0,0,0,1.69V17.31A1.69,1.69,0,0,0,1.68,19H21.31A1.69,1.69,0,0,0,23,17.31V1.69A1.69,1.69,0,0,0,21.31,0Z"/><line class="cls-2" x1="0.5" y1="3.5" x2="22.5" y2="3.5"/></g><path d="M7.5,15.34a.67.67,0,0,1-.5-.23l-3.35-4L7,7.15A.65.65,0,0,1,8,8L5.35,11.13,8,14.27a.65.65,0,0,1-.08.91A.61.61,0,0,1,7.5,15.34Z"/><path d="M15.5,15.34a.61.61,0,0,1-.42-.16.65.65,0,0,1-.08-.91l2.65-3.14L15,8a.65.65,0,0,1,1-.83l3.35,4-3.35,4A.67.67,0,0,1,15.5,15.34Z"/><path d="M9.75,16.53a.85.85,0,0,1-.22,0,.66.66,0,0,1-.39-.84l3.5-9.5a.65.65,0,0,1,1.22.45l-3.5,9.5A.67.67,0,0,1,9.75,16.53Z"/></svg>